<?xml version="1.0" encoding="UTF-8" standalone="no"?>
<svg
   xmlns:dc="http://purl.org/dc/elements/1.1/"
   xmlns:cc="http://creativecommons.org/ns#"
   xmlns:rdf="http://www.w3.org/1999/02/22-rdf-syntax-ns#"
   xmlns:svg="http://www.w3.org/2000/svg"
   xmlns="http://www.w3.org/2000/svg"
   xmlns:sodipodi="http://sodipodi.sourceforge.net/DTD/sodipodi-0.dtd"
   xmlns:inkscape="http://www.inkscape.org/namespaces/inkscape"
   width="24"
   height="24"
   viewBox="0 0 24 24"
   version="1.1"
   id="svg8"
   sodipodi:docname="markers_layer_on.svg"
   inkscape:version="0.92.3 (2405546, 2018-03-11)">
  <metadata
     id="metadata14">
    <rdf:RDF>
      <cc:Work
         rdf:about="">
        <dc:format>image/svg+xml</dc:format>
        <dc:type
           rdf:resource="http://purl.org/dc/dcmitype/StillImage" />
        <dc:title></dc:title>
      </cc:Work>
    </rdf:RDF>
  </metadata>
  <defs
     id="defs12" />
  <sodipodi:namedview
     pagecolor="#ffffff"
     bordercolor="#666666"
     borderopacity="1"
     objecttolerance="10"
     gridtolerance="10"
     guidetolerance="10"
     inkscape:pageopacity="0"
     inkscape:pageshadow="2"
     inkscape:window-width="828"
     inkscape:window-height="480"
     id="namedview10"
     showgrid="false"
     inkscape:zoom="9.8333333"
     inkscape:cx="12"
     inkscape:cy="12"
     inkscape:window-x="147"
     inkscape:window-y="127"
     inkscape:window-maximized="0"
     inkscape:current-layer="svg8" />
  <circle
     style="opacity:0.95999995;fill:#0095dd;fill-opacity:1;stroke-width:1.04327357"
     id="path4526"
     cx="-12"
     cy="12"
     r="11.82966"
     transform="scale(-1,1)" />
  <path
     fill="none"
     d="M0 0h24v24H0V0z"
     id="path2" />
  <path
     d="M 12,4 C 8.904,4 6.4,6.504 6.4,9.6 6.4,13.8 12,20 12,20 12,20 17.6,13.8 17.6,9.6 17.6,6.504 15.096,4 12,4 Z M 8,9.6 c 0,-2.208 1.792,-4 4,-4 2.208,0 4,1.792 4,4 0,2.304 -2.304,5.752 -4,7.904 C 10.336,15.368 8,11.88 8,9.6 Z"
     id="path4"
     inkscape:connector-curvature="0"
     style="stroke-width:0.80000001;fill:#f2ffff;fill-opacity:1" />
  <circle
     cx="12"
     cy="9"
     r="2"
     id="circle6"
     style="stroke-width:0.80000001;fill:#ffffff;fill-opacity:1" />
</svg>
