<?xml version="1.0" encoding="UTF-8" standalone="no"?>
<svg
   xmlns:dc="http://purl.org/dc/elements/1.1/"
   xmlns:cc="http://creativecommons.org/ns#"
   xmlns:rdf="http://www.w3.org/1999/02/22-rdf-syntax-ns#"
   xmlns:svg="http://www.w3.org/2000/svg"
   xmlns="http://www.w3.org/2000/svg"
   xmlns:sodipodi="http://sodipodi.sourceforge.net/DTD/sodipodi-0.dtd"
   xmlns:inkscape="http://www.inkscape.org/namespaces/inkscape"
   width="24"
   height="24"
   viewBox="0 0 24 24"
   version="1.1"
   id="svg6"
   sodipodi:docname="search_areas_layer_off.svg"
   inkscape:version="0.92.3 (2405546, 2018-03-11)">
  <metadata
     id="metadata12">
    <rdf:RDF>
      <cc:Work
         rdf:about="">
        <dc:format>image/svg+xml</dc:format>
        <dc:type
           rdf:resource="http://purl.org/dc/dcmitype/StillImage" />
        <dc:title></dc:title>
      </cc:Work>
    </rdf:RDF>
  </metadata>
  <defs
     id="defs10" />
  <sodipodi:namedview
     pagecolor="#ffffff"
     bordercolor="#666666"
     borderopacity="1"
     objecttolerance="10"
     gridtolerance="10"
     guidetolerance="10"
     inkscape:pageopacity="0"
     inkscape:pageshadow="2"
     inkscape:window-width="828"
     inkscape:window-height="480"
     id="namedview8"
     showgrid="false"
     inkscape:zoom="9.8333333"
     inkscape:cx="12"
     inkscape:cy="12"
     inkscape:window-x="289"
     inkscape:window-y="90"
     inkscape:window-maximized="0"
     inkscape:current-layer="svg6" />
  <circle
     style="opacity:0.95999995;fill:#ffffff;fill-opacity:1;stroke-width:1.04327357"
     id="path4526"
     cx="-12"
     cy="12"
     r="11.82966"
     transform="scale(-1,1)" />
  <path
     fill="none"
     d="M0 0h24v24H0V0z"
     id="path2" />
  <path
     d="M 18.008,4.864 4.864,18.008 c 0.072,0.272 0.216,0.52 0.408,0.72 0.2,0.192 0.448,0.336 0.72,0.408 L 19.144,5.992 C 18.992,5.44 18.56,5.008 18.008,4.864 Z M 11.904,4.8 4.8,11.904 v 2.264 L 14.168,4.8 Z M 6.4,4.8 C 5.52,4.8 4.8,5.52 4.8,6.4 V 8 L 8,4.8 Z m 11.2,14.4 c 0.44,0 0.84,-0.176 1.128,-0.472 C 19.024,18.44 19.2,18.04 19.2,17.6 V 16 L 16,19.2 Z m -7.768,0 h 2.264 L 19.2,12.096 V 9.832 Z"
     id="path4"
     inkscape:connector-curvature="0"
     style="stroke-width:0.80000001;fill:#000000;fill-opacity:1" />
</svg>
