<?xml version="1.0" encoding="UTF-8" standalone="no"?>
<svg
   xmlns:dc="http://purl.org/dc/elements/1.1/"
   xmlns:cc="http://creativecommons.org/ns#"
   xmlns:rdf="http://www.w3.org/1999/02/22-rdf-syntax-ns#"
   xmlns:svg="http://www.w3.org/2000/svg"
   xmlns="http://www.w3.org/2000/svg"
   xmlns:sodipodi="http://sodipodi.sourceforge.net/DTD/sodipodi-0.dtd"
   xmlns:inkscape="http://www.inkscape.org/namespaces/inkscape"
   width="24"
   height="24"
   viewBox="0 0 24 24"
   version="1.1"
   id="svg6"
   sodipodi:docname="tracking_off.svg"
   inkscape:version="0.92.3 (2405546, 2018-03-11)">
  <metadata
     id="metadata12">
    <rdf:RDF>
      <cc:Work
         rdf:about="">
        <dc:format>image/svg+xml</dc:format>
        <dc:type
           rdf:resource="http://purl.org/dc/dcmitype/StillImage" />
      </cc:Work>
    </rdf:RDF>
  </metadata>
  <defs
     id="defs10" />
  <sodipodi:namedview
     pagecolor="#ffffff"
     bordercolor="#666666"
     borderopacity="1"
     objecttolerance="10"
     gridtolerance="10"
     guidetolerance="10"
     inkscape:pageopacity="0"
     inkscape:pageshadow="2"
     inkscape:window-width="830"
     inkscape:window-height="480"
     id="namedview8"
     showgrid="false"
     inkscape:zoom="9.8333333"
     inkscape:cx="12"
     inkscape:cy="12"
     inkscape:window-x="450"
     inkscape:window-y="37"
     inkscape:window-maximized="0"
     inkscape:current-layer="svg6" />
  <circle
     style="opacity:0.95999995;fill:#ffffff;fill-opacity:1;stroke-width:1.04327357"
     id="path4526"
     cx="-12"
     cy="12"
     r="11.82966"
     transform="scale(-1,1)" />
  <path
     fill="none"
     d="M0 0h24v24H0V0z"
     id="path2" />
  <path
     d="M 19.152,11.2 C 18.784,7.864 16.136,5.216 12.8,4.848 V 3.2 H 11.2 V 4.848 C 10.416,4.936 9.672,5.152 8.984,5.472 l 1.224,1.224 C 10.768,6.504 11.376,6.4 12,6.4 c 3.096,0 5.6,2.504 5.6,5.6 0,0.632 -0.104,1.232 -0.296,1.792 l 1.224,1.224 c 0.32,-0.688 0.536,-1.432 0.624,-2.216 H 20.8 V 11.2 Z M 4.8,5.816 6.432,7.448 C 5.576,8.496 5.008,9.784 4.848,11.2 H 3.2 v 1.6 h 1.648 c 0.368,3.336 3.016,5.984 6.352,6.352 V 20.8 h 1.6 v -1.648 c 1.416,-0.16 2.704,-0.728 3.752,-1.584 L 18.184,19.2 19.312,18.072 5.928,4.688 Z M 15.416,16.432 C 14.472,17.16 13.288,17.6 12,17.6 8.904,17.6 6.4,15.096 6.4,12 6.4,10.712 6.84,9.528 7.568,8.584 Z"
     id="path4"
     inkscape:connector-curvature="0"
     style="stroke-width:0.80000001" />
</svg>
