<?xml version="1.0" encoding="UTF-8" standalone="no"?>
<svg
   xmlns:dc="http://purl.org/dc/elements/1.1/"
   xmlns:cc="http://creativecommons.org/ns#"
   xmlns:rdf="http://www.w3.org/1999/02/22-rdf-syntax-ns#"
   xmlns:svg="http://www.w3.org/2000/svg"
   xmlns="http://www.w3.org/2000/svg"
   xmlns:sodipodi="http://sodipodi.sourceforge.net/DTD/sodipodi-0.dtd"
   xmlns:inkscape="http://www.inkscape.org/namespaces/inkscape"
   width="24"
   height="24"
   viewBox="0 0 24 24"
   version="1.1"
   id="svg6"
   sodipodi:docname="tracking_on.svg"
   inkscape:version="0.92.3 (2405546, 2018-03-11)">
  <metadata
     id="metadata12">
    <rdf:RDF>
      <cc:Work
         rdf:about="">
        <dc:format>image/svg+xml</dc:format>
        <dc:type
           rdf:resource="http://purl.org/dc/dcmitype/StillImage" />
      </cc:Work>
    </rdf:RDF>
  </metadata>
  <defs
     id="defs10" />
  <sodipodi:namedview
     pagecolor="#ffffff"
     bordercolor="#666666"
     borderopacity="1"
     objecttolerance="10"
     gridtolerance="10"
     guidetolerance="10"
     inkscape:pageopacity="0"
     inkscape:pageshadow="2"
     inkscape:window-width="1366"
     inkscape:window-height="684"
     id="namedview8"
     showgrid="false"
     inkscape:zoom="9.8333333"
     inkscape:cx="12"
     inkscape:cy="12"
     inkscape:window-x="0"
     inkscape:window-y="28"
     inkscape:window-maximized="1"
     inkscape:current-layer="svg6" />
  <circle
     style="opacity:0.95999995;fill:#0095dd;fill-opacity:1;stroke-width:1.04327357"
     id="path4526"
     cx="-12"
     cy="12"
     r="11.82966"
     transform="scale(-1,1)" />
  <path
     fill="none"
     d="M0 0h24v24H0V0z"
     id="path2" />
  <path
     d="m 12,8.8 c -1.768,0 -3.2,1.432 -3.2,3.2 0,1.768 1.432,3.2 3.2,3.2 1.768,0 3.2,-1.432 3.2,-3.2 0,-1.768 -1.432,-3.2 -3.2,-3.2 z m 7.152,2.4 C 18.784,7.864 16.136,5.216 12.8,4.848 V 3.2 H 11.2 V 4.848 C 7.864,5.216 5.216,7.864 4.848,11.2 H 3.2 v 1.6 h 1.648 c 0.368,3.336 3.016,5.984 6.352,6.352 V 20.8 h 1.6 v -1.648 c 3.336,-0.368 5.984,-3.016 6.352,-6.352 H 20.8 V 11.2 Z M 12,17.6 C 8.904,17.6 6.4,15.096 6.4,12 6.4,8.904 8.904,6.4 12,6.4 c 3.096,0 5.6,2.504 5.6,5.6 0,3.096 -2.504,5.6 -5.6,5.6 z"
     id="path4"
     style="fill:#ffffff;fill-opacity:1;stroke-width:0.80000001"
     inkscape:connector-curvature="0" />
</svg>
